<svg xmlns="http://www.w3.org/2000/svg" viewBox="0 0 880 300" width="880" height="300" font-family="'Courier New', ui-monospace, monospace" role="img" aria-label="@lucenity0 — NAFEES S, dev and design">
<defs>
<style>
  .px  { opacity: 0; }
  .scan{ opacity: 0; }
  @keyframes fadein { from { opacity: 0; transform: translateY(6px); } to { opacity: 1; transform: translateY(0); } }
  @keyframes blink  { 0%,49% { opacity: 1 } 50%,100% { opacity: 0 } }
  @keyframes dot    { 0%,60% { opacity: 1 } 70%,100% { opacity: .15 } }
  @keyframes pulse  { 0%,100% { opacity: 0 } 8% { opacity: .9 } 34% { opacity: .12 } 62% { opacity: 0 } }
  @keyframes scan   { 0% { transform: translateY(0); opacity: 0 } 12% { opacity: .10 } 88% { opacity: .10 } 100% { transform: translateY(224px); opacity: 0 } }
  @media (prefers-reduced-motion: no-preference) {
    .boot { opacity: 0; transform-box: fill-box; animation: fadein .6s ease forwards; }
    .d1 { animation-delay: .10s } .d2 { animation-delay: .30s } .d3 { animation-delay: .50s } .d4 { animation-delay: .70s }
    .cursor { animation: blink 1s steps(1) infinite; }
    .odot   { animation: dot 1.8s ease-in-out infinite; }
    .px     { animation: pulse 3.4s ease-in-out infinite; }
    .scan   { animation: scan 4.8s linear infinite; }
  }
</style>
</defs>
<rect x="4" y="4" width="872" height="292" rx="18" fill="#ededed" stroke="#111111" stroke-width="4"/>
<g stroke="#e6e6e6" stroke-width="1">
<line x1="40" y1="20" x2="40" y2="280"/>
<line x1="80" y1="20" x2="80" y2="280"/>
<line x1="120" y1="20" x2="120" y2="280"/>
<line x1="160" y1="20" x2="160" y2="280"/>
<line x1="200" y1="20" x2="200" y2="280"/>
<line x1="240" y1="20" x2="240" y2="280"/>
<line x1="280" y1="20" x2="280" y2="280"/>
<line x1="320" y1="20" x2="320" y2="280"/>
<line x1="360" y1="20" x2="360" y2="280"/>
<line x1="400" y1="20" x2="400" y2="280"/>
<line x1="440" y1="20" x2="440" y2="280"/>
<line x1="480" y1="20" x2="480" y2="280"/>
<line x1="520" y1="20" x2="520" y2="280"/>
<line x1="560" y1="20" x2="560" y2="280"/>
<line x1="600" y1="20" x2="600" y2="280"/>
<line x1="640" y1="20" x2="640" y2="280"/>
<line x1="680" y1="20" x2="680" y2="280"/>
<line x1="720" y1="20" x2="720" y2="280"/>
<line x1="760" y1="20" x2="760" y2="280"/>
<line x1="800" y1="20" x2="800" y2="280"/>
<line x1="840" y1="20" x2="840" y2="280"/>
<line x1="20" y1="40" x2="860" y2="40"/>
<line x1="20" y1="80" x2="860" y2="80"/>
<line x1="20" y1="120" x2="860" y2="120"/>
<line x1="20" y1="160" x2="860" y2="160"/>
<line x1="20" y1="200" x2="860" y2="200"/>
<line x1="20" y1="240" x2="860" y2="240"/>
</g>
<path d="M 42 26 L 26 26 L 26 42" fill="none" stroke="#111111" stroke-width="3"/>
<path d="M 838 26 L 854 26 L 854 42" fill="none" stroke="#111111" stroke-width="3"/>
<path d="M 42 274 L 26 274 L 26 258" fill="none" stroke="#111111" stroke-width="3"/>
<path d="M 838 274 L 854 274 L 854 258" fill="none" stroke="#111111" stroke-width="3"/>
<text x="46" y="50" font-size="12" letter-spacing="3" fill="#8f8f8f">// GITHUB · PROFILE</text>
<circle class="odot" cx="742" cy="46" r="5" fill="#111111"/>
<text x="756" y="50" font-size="12" letter-spacing="3" fill="#8f8f8f">ONLINE</text>
<text class="boot d1" x="60" y="102" font-size="15" letter-spacing="1" fill="#8f8f8f">&#62; whoami</text>
<text class="boot d1" x="58" y="156" font-size="58" font-weight="700" letter-spacing="1" fill="#111111">Nafees</text>
<text class="boot d2" x="61" y="190" font-size="21" font-weight="700" letter-spacing="1" fill="#111111">@lucenity0</text>
<text class="boot d2" x="209" y="190" font-size="13" letter-spacing="1" fill="#8f8f8f">he/him</text>
<g class="boot d3">
<text x="62" y="220" font-size="15" letter-spacing=".5" fill="#555555">builder &#183; designer &#183; shipping in public</text>
<rect class="cursor" x="438" y="208" width="9" height="15" fill="#111111"/>
</g>
<g class="boot d4">
<rect x="60" y="242" width="44" height="24" rx="3" fill="none" stroke="#111111" stroke-width="1.5"/>
<text x="82" y="258" font-size="11" letter-spacing="2" fill="#111111" text-anchor="middle">DEV</text>
</g>
<g class="boot d4">
<rect x="116" y="242" width="68" height="24" rx="3" fill="none" stroke="#111111" stroke-width="1.5"/>
<text x="150" y="258" font-size="11" letter-spacing="2" fill="#111111" text-anchor="middle">DESIGN</text>
</g>
<g class="boot d4">
<rect x="196" y="242" width="60" height="24" rx="3" fill="none" stroke="#111111" stroke-width="1.5"/>
<text x="226" y="258" font-size="11" letter-spacing="2" fill="#111111" text-anchor="middle">MUSIC</text>
</g>
<text x="600" y="58" font-size="8" letter-spacing="2" fill="#8f8f8f">// CONTRIBUTIONS</text>
<rect x="600" y="66" width="18" height="18" rx="3" fill="#dcdcdc"/>
<rect class="px" x="600" y="66" width="18" height="18" rx="3" fill="#111111" style="animation-delay:0.00s"/>
<rect x="624" y="66" width="18" height="18" rx="3" fill="#dcdcdc"/>
<rect class="px" x="624" y="66" width="18" height="18" rx="3" fill="#111111" style="animation-delay:0.13s"/>
<rect x="648" y="66" width="18" height="18" rx="3" fill="#dcdcdc"/>
<rect class="px" x="648" y="66" width="18" height="18" rx="3" fill="#111111" style="animation-delay:0.26s"/>
<rect x="672" y="66" width="18" height="18" rx="3" fill="#6f6f6f"/>
<rect class="px" x="672" y="66" width="18" height="18" rx="3" fill="#111111" style="animation-delay:0.39s"/>
<rect x="696" y="66" width="18" height="18" rx="3" fill="#c9c9c9"/>
<rect class="px" x="696" y="66" width="18" height="18" rx="3" fill="#111111" style="animation-delay:0.52s"/>
<rect x="720" y="66" width="18" height="18" rx="3" fill="#c9c9c9"/>
<rect class="px" x="720" y="66" width="18" height="18" rx="3" fill="#111111" style="animation-delay:0.65s"/>
<rect x="744" y="66" width="18" height="18" rx="3" fill="#6f6f6f"/>
<rect class="px" x="744" y="66" width="18" height="18" rx="3" fill="#111111" style="animation-delay:0.78s"/>
<rect x="768" y="66" width="18" height="18" rx="3" fill="#dcdcdc"/>
<rect class="px" x="768" y="66" width="18" height="18" rx="3" fill="#111111" style="animation-delay:0.91s"/>
<rect x="792" y="66" width="18" height="18" rx="3" fill="#dcdcdc"/>
<rect class="px" x="792" y="66" width="18" height="18" rx="3" fill="#111111" style="animation-delay:1.04s"/>
<rect x="816" y="66" width="18" height="18" rx="3" fill="#dcdcdc"/>
<rect class="px" x="816" y="66" width="18" height="18" rx="3" fill="#111111" style="animation-delay:1.17s"/>
<rect x="600" y="90" width="18" height="18" rx="3" fill="#6f6f6f"/>
<rect class="px" x="600" y="90" width="18" height="18" rx="3" fill="#111111" style="animation-delay:0.13s"/>
<rect x="624" y="90" width="18" height="18" rx="3" fill="#6f6f6f"/>
<rect class="px" x="624" y="90" width="18" height="18" rx="3" fill="#111111" style="animation-delay:0.26s"/>
<rect x="648" y="90" width="18" height="18" rx="3" fill="#dcdcdc"/>
<rect class="px" x="648" y="90" width="18" height="18" rx="3" fill="#111111" style="animation-delay:0.39s"/>
<rect x="672" y="90" width="18" height="18" rx="3" fill="#c9c9c9"/>
<rect class="px" x="672" y="90" width="18" height="18" rx="3" fill="#111111" style="animation-delay:0.52s"/>
<rect x="696" y="90" width="18" height="18" rx="3" fill="#dcdcdc"/>
<rect class="px" x="696" y="90" width="18" height="18" rx="3" fill="#111111" style="animation-delay:0.65s"/>
<rect x="720" y="90" width="18" height="18" rx="3" fill="#dcdcdc"/>
<rect class="px" x="720" y="90" width="18" height="18" rx="3" fill="#111111" style="animation-delay:0.78s"/>
<rect x="744" y="90" width="18" height="18" rx="3" fill="#c9c9c9"/>
<rect class="px" x="744" y="90" width="18" height="18" rx="3" fill="#111111" style="animation-delay:0.91s"/>
<rect x="768" y="90" width="18" height="18" rx="3" fill="#dcdcdc"/>
<rect class="px" x="768" y="90" width="18" height="18" rx="3" fill="#111111" style="animation-delay:1.04s"/>
<rect x="792" y="90" width="18" height="18" rx="3" fill="#6f6f6f"/>
<rect class="px" x="792" y="90" width="18" height="18" rx="3" fill="#111111" style="animation-delay:1.17s"/>
<rect x="816" y="90" width="18" height="18" rx="3" fill="#6f6f6f"/>
<rect class="px" x="816" y="90" width="18" height="18" rx="3" fill="#111111" style="animation-delay:1.30s"/>
<rect x="600" y="114" width="18" height="18" rx="3" fill="#c9c9c9"/>
<rect class="px" x="600" y="114" width="18" height="18" rx="3" fill="#111111" style="animation-delay:0.26s"/>
<rect x="624" y="114" width="18" height="18" rx="3" fill="#c9c9c9"/>
<rect class="px" x="624" y="114" width="18" height="18" rx="3" fill="#111111" style="animation-delay:0.39s"/>
<rect x="648" y="114" width="18" height="18" rx="3" fill="#6f6f6f"/>
<rect class="px" x="648" y="114" width="18" height="18" rx="3" fill="#111111" style="animation-delay:0.52s"/>
<rect x="672" y="114" width="18" height="18" rx="3" fill="#dcdcdc"/>
<rect class="px" x="672" y="114" width="18" height="18" rx="3" fill="#111111" style="animation-delay:0.65s"/>
<rect x="696" y="114" width="18" height="18" rx="3" fill="#dcdcdc"/>
<rect class="px" x="696" y="114" width="18" height="18" rx="3" fill="#111111" style="animation-delay:0.78s"/>
<rect x="720" y="114" width="18" height="18" rx="3" fill="#dcdcdc"/>
<rect class="px" x="720" y="114" width="18" height="18" rx="3" fill="#111111" style="animation-delay:0.91s"/>
<rect x="744" y="114" width="18" height="18" rx="3" fill="#dcdcdc"/>
<rect class="px" x="744" y="114" width="18" height="18" rx="3" fill="#111111" style="animation-delay:1.04s"/>
<rect x="768" y="114" width="18" height="18" rx="3" fill="#6f6f6f"/>
<rect class="px" x="768" y="114" width="18" height="18" rx="3" fill="#111111" style="animation-delay:1.17s"/>
<rect x="792" y="114" width="18" height="18" rx="3" fill="#c9c9c9"/>
<rect class="px" x="792" y="114" width="18" height="18" rx="3" fill="#111111" style="animation-delay:1.30s"/>
<rect x="816" y="114" width="18" height="18" rx="3" fill="#c9c9c9"/>
<rect class="px" x="816" y="114" width="18" height="18" rx="3" fill="#111111" style="animation-delay:1.43s"/>
<rect x="600" y="138" width="18" height="18" rx="3" fill="#dcdcdc"/>
<rect class="px" x="600" y="138" width="18" height="18" rx="3" fill="#111111" style="animation-delay:0.39s"/>
<rect x="624" y="138" width="18" height="18" rx="3" fill="#dcdcdc"/>
<rect class="px" x="624" y="138" width="18" height="18" rx="3" fill="#111111" style="animation-delay:0.52s"/>
<rect x="648" y="138" width="18" height="18" rx="3" fill="#c9c9c9"/>
<rect class="px" x="648" y="138" width="18" height="18" rx="3" fill="#111111" style="animation-delay:0.65s"/>
<rect x="672" y="138" width="18" height="18" rx="3" fill="#dcdcdc"/>
<rect class="px" x="672" y="138" width="18" height="18" rx="3" fill="#111111" style="animation-delay:0.78s"/>
<rect x="696" y="138" width="18" height="18" rx="3" fill="#6f6f6f"/>
<rect class="px" x="696" y="138" width="18" height="18" rx="3" fill="#111111" style="animation-delay:0.91s"/>
<rect x="720" y="138" width="18" height="18" rx="3" fill="#6f6f6f"/>
<rect class="px" x="720" y="138" width="18" height="18" rx="3" fill="#111111" style="animation-delay:1.04s"/>
<rect x="744" y="138" width="18" height="18" rx="3" fill="#dcdcdc"/>
<rect class="px" x="744" y="138" width="18" height="18" rx="3" fill="#111111" style="animation-delay:1.17s"/>
<rect x="768" y="138" width="18" height="18" rx="3" fill="#c9c9c9"/>
<rect class="px" x="768" y="138" width="18" height="18" rx="3" fill="#111111" style="animation-delay:1.30s"/>
<rect x="792" y="138" width="18" height="18" rx="3" fill="#dcdcdc"/>
<rect class="px" x="792" y="138" width="18" height="18" rx="3" fill="#111111" style="animation-delay:1.43s"/>
<rect x="816" y="138" width="18" height="18" rx="3" fill="#dcdcdc"/>
<rect class="px" x="816" y="138" width="18" height="18" rx="3" fill="#111111" style="animation-delay:1.56s"/>
<rect x="600" y="162" width="18" height="18" rx="3" fill="#dcdcdc"/>
<rect class="px" x="600" y="162" width="18" height="18" rx="3" fill="#111111" style="animation-delay:0.52s"/>
<rect x="624" y="162" width="18" height="18" rx="3" fill="#dcdcdc"/>
<rect class="px" x="624" y="162" width="18" height="18" rx="3" fill="#111111" style="animation-delay:0.65s"/>
<rect x="648" y="162" width="18" height="18" rx="3" fill="#dcdcdc"/>
<rect class="px" x="648" y="162" width="18" height="18" rx="3" fill="#111111" style="animation-delay:0.78s"/>
<rect x="672" y="162" width="18" height="18" rx="3" fill="#6f6f6f"/>
<rect class="px" x="672" y="162" width="18" height="18" rx="3" fill="#111111" style="animation-delay:0.91s"/>
<rect x="696" y="162" width="18" height="18" rx="3" fill="#c9c9c9"/>
<rect class="px" x="696" y="162" width="18" height="18" rx="3" fill="#111111" style="animation-delay:1.04s"/>
<rect x="720" y="162" width="18" height="18" rx="3" fill="#c9c9c9"/>
<rect class="px" x="720" y="162" width="18" height="18" rx="3" fill="#111111" style="animation-delay:1.17s"/>
<rect x="744" y="162" width="18" height="18" rx="3" fill="#6f6f6f"/>
<rect class="px" x="744" y="162" width="18" height="18" rx="3" fill="#111111" style="animation-delay:1.30s"/>
<rect x="768" y="162" width="18" height="18" rx="3" fill="#dcdcdc"/>
<rect class="px" x="768" y="162" width="18" height="18" rx="3" fill="#111111" style="animation-delay:1.43s"/>
<rect x="792" y="162" width="18" height="18" rx="3" fill="#dcdcdc"/>
<rect class="px" x="792" y="162" width="18" height="18" rx="3" fill="#111111" style="animation-delay:1.56s"/>
<rect x="816" y="162" width="18" height="18" rx="3" fill="#dcdcdc"/>
<rect class="px" x="816" y="162" width="18" height="18" rx="3" fill="#111111" style="animation-delay:1.69s"/>
<rect x="600" y="186" width="18" height="18" rx="3" fill="#6f6f6f"/>
<rect class="px" x="600" y="186" width="18" height="18" rx="3" fill="#111111" style="animation-delay:0.65s"/>
<rect x="624" y="186" width="18" height="18" rx="3" fill="#6f6f6f"/>
<rect class="px" x="624" y="186" width="18" height="18" rx="3" fill="#111111" style="animation-delay:0.78s"/>
<rect x="648" y="186" width="18" height="18" rx="3" fill="#dcdcdc"/>
<rect class="px" x="648" y="186" width="18" height="18" rx="3" fill="#111111" style="animation-delay:0.91s"/>
<rect x="672" y="186" width="18" height="18" rx="3" fill="#c9c9c9"/>
<rect class="px" x="672" y="186" width="18" height="18" rx="3" fill="#111111" style="animation-delay:1.04s"/>
<rect x="696" y="186" width="18" height="18" rx="3" fill="#dcdcdc"/>
<rect class="px" x="696" y="186" width="18" height="18" rx="3" fill="#111111" style="animation-delay:1.17s"/>
<rect x="720" y="186" width="18" height="18" rx="3" fill="#dcdcdc"/>
<rect class="px" x="720" y="186" width="18" height="18" rx="3" fill="#111111" style="animation-delay:1.30s"/>
<rect x="744" y="186" width="18" height="18" rx="3" fill="#c9c9c9"/>
<rect class="px" x="744" y="186" width="18" height="18" rx="3" fill="#111111" style="animation-delay:1.43s"/>
<rect x="768" y="186" width="18" height="18" rx="3" fill="#dcdcdc"/>
<rect class="px" x="768" y="186" width="18" height="18" rx="3" fill="#111111" style="animation-delay:1.56s"/>
<rect x="792" y="186" width="18" height="18" rx="3" fill="#6f6f6f"/>
<rect class="px" x="792" y="186" width="18" height="18" rx="3" fill="#111111" style="animation-delay:1.69s"/>
<rect x="816" y="186" width="18" height="18" rx="3" fill="#6f6f6f"/>
<rect class="px" x="816" y="186" width="18" height="18" rx="3" fill="#111111" style="animation-delay:1.82s"/>
<rect x="600" y="210" width="18" height="18" rx="3" fill="#c9c9c9"/>
<rect class="px" x="600" y="210" width="18" height="18" rx="3" fill="#111111" style="animation-delay:0.78s"/>
<rect x="624" y="210" width="18" height="18" rx="3" fill="#c9c9c9"/>
<rect class="px" x="624" y="210" width="18" height="18" rx="3" fill="#111111" style="animation-delay:0.91s"/>
<rect x="648" y="210" width="18" height="18" rx="3" fill="#6f6f6f"/>
<rect class="px" x="648" y="210" width="18" height="18" rx="3" fill="#111111" style="animation-delay:1.04s"/>
<rect x="672" y="210" width="18" height="18" rx="3" fill="#dcdcdc"/>
<rect class="px" x="672" y="210" width="18" height="18" rx="3" fill="#111111" style="animation-delay:1.17s"/>
<rect x="696" y="210" width="18" height="18" rx="3" fill="#dcdcdc"/>
<rect class="px" x="696" y="210" width="18" height="18" rx="3" fill="#111111" style="animation-delay:1.30s"/>
<rect x="720" y="210" width="18" height="18" rx="3" fill="#dcdcdc"/>
<rect class="px" x="720" y="210" width="18" height="18" rx="3" fill="#111111" style="animation-delay:1.43s"/>
<rect x="744" y="210" width="18" height="18" rx="3" fill="#dcdcdc"/>
<rect class="px" x="744" y="210" width="18" height="18" rx="3" fill="#111111" style="animation-delay:1.56s"/>
<rect x="768" y="210" width="18" height="18" rx="3" fill="#6f6f6f"/>
<rect class="px" x="768" y="210" width="18" height="18" rx="3" fill="#111111" style="animation-delay:1.69s"/>
<rect x="792" y="210" width="18" height="18" rx="3" fill="#c9c9c9"/>
<rect class="px" x="792" y="210" width="18" height="18" rx="3" fill="#111111" style="animation-delay:1.82s"/>
<rect x="816" y="210" width="18" height="18" rx="3" fill="#c9c9c9"/>
<rect class="px" x="816" y="210" width="18" height="18" rx="3" fill="#111111" style="animation-delay:1.95s"/>
<text x="600" y="248" font-size="11" letter-spacing="1" fill="#8f8f8f">~ $ git commit -m "keep shipping"</text>
<rect class="scan" x="26" y="40" width="828" height="2" fill="#111111"/>
</svg>
